<mxfile host="app.diagrams.net" agent="Mozilla/5.0 (Windows NT 10.0; Win64; x64) AppleWebKit/537.36 (KHTML, like Gecko) Chrome/140.0.0.0 Safari/537.36" version="28.2.3">
  <diagram name="Trang-1" id="EiqQzYF886wNTERTF4o0">
    <mxGraphModel dx="1039" dy="610" grid="1" gridSize="10" guides="1" tooltips="1" connect="1" arrows="1" fold="1" page="1" pageScale="1" pageWidth="827" pageHeight="1169" math="0" shadow="0">
      <root>
        <mxCell id="0" />
        <mxCell id="1" parent="0" />
        <mxCell id="wBQCG5dPiOvkdkUIekM6-1" value="đặt vé" style="ellipse;whiteSpace=wrap;html=1;" vertex="1" parent="1">
          <mxGeometry x="360" y="70" width="120" height="80" as="geometry" />
        </mxCell>
        <mxCell id="wBQCG5dPiOvkdkUIekM6-3" style="edgeStyle=orthogonalEdgeStyle;rounded=0;orthogonalLoop=1;jettySize=auto;html=1;exitX=0.5;exitY=1;exitDx=0;exitDy=0;entryX=0.54;entryY=-0.004;entryDx=0;entryDy=0;entryPerimeter=0;" edge="1" parent="1" source="wBQCG5dPiOvkdkUIekM6-2" target="wBQCG5dPiOvkdkUIekM6-9">
          <mxGeometry relative="1" as="geometry">
            <mxPoint x="400" y="340" as="targetPoint" />
          </mxGeometry>
        </mxCell>
        <mxCell id="wBQCG5dPiOvkdkUIekM6-2" value="nhập thông tin khách hàng&lt;div&gt;cccd&lt;/div&gt;&lt;div&gt;địa chỉ&lt;/div&gt;&lt;div&gt;chọn điểm đến,điểm bắt đầu&lt;/div&gt;&lt;div&gt;giờ bay&lt;/div&gt;&lt;div&gt;sdt, mail&lt;/div&gt;&lt;div&gt;visa&lt;/div&gt;&lt;div&gt;tình trạng sức khỏe&lt;/div&gt;&lt;div&gt;thanh toán&lt;/div&gt;" style="shape=parallelogram;perimeter=parallelogramPerimeter;whiteSpace=wrap;html=1;fixedSize=1;" vertex="1" parent="1">
          <mxGeometry x="310" y="190" width="200" height="130" as="geometry" />
        </mxCell>
        <mxCell id="wBQCG5dPiOvkdkUIekM6-4" style="edgeStyle=orthogonalEdgeStyle;rounded=0;orthogonalLoop=1;jettySize=auto;html=1;entryX=0.55;entryY=0;entryDx=0;entryDy=0;entryPerimeter=0;" edge="1" parent="1" source="wBQCG5dPiOvkdkUIekM6-1" target="wBQCG5dPiOvkdkUIekM6-2">
          <mxGeometry relative="1" as="geometry" />
        </mxCell>
        <mxCell id="wBQCG5dPiOvkdkUIekM6-7" value="sai&lt;div&gt;thiếu&lt;/div&gt;&lt;div&gt;cấm bay&lt;/div&gt;&lt;div&gt;&lt;br&gt;&lt;/div&gt;" style="text;html=1;align=center;verticalAlign=middle;resizable=0;points=[];autosize=1;strokeColor=none;fillColor=none;" vertex="1" parent="1">
          <mxGeometry x="510" y="460" width="70" height="70" as="geometry" />
        </mxCell>
        <mxCell id="wBQCG5dPiOvkdkUIekM6-13" style="edgeStyle=orthogonalEdgeStyle;rounded=0;orthogonalLoop=1;jettySize=auto;html=1;entryX=0.5;entryY=0;entryDx=0;entryDy=0;" edge="1" parent="1" source="wBQCG5dPiOvkdkUIekM6-9" target="wBQCG5dPiOvkdkUIekM6-11">
          <mxGeometry relative="1" as="geometry" />
        </mxCell>
        <mxCell id="wBQCG5dPiOvkdkUIekM6-9" value="xử lí thông tin&lt;div&gt;phân loại chuyến bay&lt;/div&gt;&lt;div&gt;phan loại khách hàng&lt;/div&gt;&lt;div&gt;cấp mã vé hành khách&lt;/div&gt;" style="rounded=0;whiteSpace=wrap;html=1;" vertex="1" parent="1">
          <mxGeometry x="320" y="360" width="150" height="100" as="geometry" />
        </mxCell>
        <mxCell id="wBQCG5dPiOvkdkUIekM6-17" style="edgeStyle=orthogonalEdgeStyle;rounded=0;orthogonalLoop=1;jettySize=auto;html=1;entryX=0.5;entryY=0;entryDx=0;entryDy=0;" edge="1" parent="1" source="wBQCG5dPiOvkdkUIekM6-11" target="wBQCG5dPiOvkdkUIekM6-14">
          <mxGeometry relative="1" as="geometry" />
        </mxCell>
        <mxCell id="wBQCG5dPiOvkdkUIekM6-11" value="điều kiện bay&lt;div&gt;đầy đủ thông tin&lt;/div&gt;&lt;div&gt;không bị cấm bay&lt;/div&gt;" style="rhombus;whiteSpace=wrap;html=1;" vertex="1" parent="1">
          <mxGeometry x="320" y="490" width="150" height="170" as="geometry" />
        </mxCell>
        <mxCell id="wBQCG5dPiOvkdkUIekM6-12" style="edgeStyle=orthogonalEdgeStyle;rounded=0;orthogonalLoop=1;jettySize=auto;html=1;" edge="1" parent="1" source="wBQCG5dPiOvkdkUIekM6-11">
          <mxGeometry relative="1" as="geometry">
            <mxPoint x="580" y="390" as="targetPoint" />
            <Array as="points">
              <mxPoint x="560" y="570" />
              <mxPoint x="560" y="400" />
              <mxPoint x="580" y="400" />
              <mxPoint x="580" y="390" />
            </Array>
          </mxGeometry>
        </mxCell>
        <mxCell id="wBQCG5dPiOvkdkUIekM6-20" value="" style="edgeStyle=orthogonalEdgeStyle;rounded=0;orthogonalLoop=1;jettySize=auto;html=1;" edge="1" parent="1" source="wBQCG5dPiOvkdkUIekM6-14" target="wBQCG5dPiOvkdkUIekM6-19">
          <mxGeometry relative="1" as="geometry" />
        </mxCell>
        <mxCell id="wBQCG5dPiOvkdkUIekM6-14" value="xuất kết quả vé máy bay cho khách&lt;div&gt;lưu trữ vé và thông tin vào hệ thống&amp;nbsp;&lt;/div&gt;" style="shape=parallelogram;perimeter=parallelogramPerimeter;whiteSpace=wrap;html=1;fixedSize=1;" vertex="1" parent="1">
          <mxGeometry x="330" y="700" width="125" height="60" as="geometry" />
        </mxCell>
        <mxCell id="wBQCG5dPiOvkdkUIekM6-16" style="edgeStyle=orthogonalEdgeStyle;rounded=0;orthogonalLoop=1;jettySize=auto;html=1;entryX=0.954;entryY=0.538;entryDx=0;entryDy=0;entryPerimeter=0;" edge="1" parent="1" target="wBQCG5dPiOvkdkUIekM6-2">
          <mxGeometry relative="1" as="geometry">
            <mxPoint x="595" y="330" as="sourcePoint" />
            <mxPoint x="510" y="255" as="targetPoint" />
            <Array as="points">
              <mxPoint x="595" y="260" />
            </Array>
          </mxGeometry>
        </mxCell>
        <mxCell id="wBQCG5dPiOvkdkUIekM6-15" value="Hủy mã vé hoàn tiền" style="shape=parallelogram;perimeter=parallelogramPerimeter;whiteSpace=wrap;html=1;fixedSize=1;" vertex="1" parent="1">
          <mxGeometry x="510" y="330" width="150" height="60" as="geometry" />
        </mxCell>
        <mxCell id="wBQCG5dPiOvkdkUIekM6-19" value="Hoàn thành" style="ellipse;whiteSpace=wrap;html=1;" vertex="1" parent="1">
          <mxGeometry x="335" y="800" width="120" height="80" as="geometry" />
        </mxCell>
      </root>
    </mxGraphModel>
  </diagram>
</mxfile>
